<svg xmlns="http://www.w3.org/2000/svg" viewBox="0 0 1024 1024" width="1024" height="1024">
  <path d="M512 972.8c-204.8 0-358.4-153.6-358.4-358.4 0-204.8 204.8-358.4 358.4-563.2 153.6 204.8 358.4 358.4 358.4 563.2 0 204.8-153.6 358.4-358.4 358.4z" fill="#FF4500" />
  
  <path d="M512 921.6c-122.9 0-225.3-102.4-225.3-256 0-153.6 143.4-276.5 225.3-460.8 81.9 184.3 225.3 307.2 225.3 460.8 0 153.6-102.4 256-225.3 256z" fill="#FF8C00" />
  
  <path d="M512 870.4c-81.9 0-143.4-71.7-143.4-174.1 0-102.4 102.4-204.8 143.4-337.9 41 133.1 143.4 235.5 143.4 337.9 0 102.4-61.4 174.1-143.4 174.1z" fill="#FFD700" />
</svg>
